<svg xmlns="http://www.w3.org/2000/svg" width="120" height="47.635" viewBox="0 0 120 47.635">
  <g id="Grupo_3240" data-name="Grupo 3240" transform="translate(-215.688 -22.336)">
    <path id="Trazado_1873" data-name="Trazado 1873" d="M256.394,53.449a7.472,7.472,0,0,0,6.154-3.246c1.971-3.176,2.041-8.365,1.175-9.776-1.024-1.667-3.162-1.741-5.014-1.028a8.1,8.1,0,0,0-3.047,2.181,13.777,13.777,0,0,0-2.057,4.6,14.31,14.31,0,0,0-.346,3.555c0,.483.392,3.389,3.134,3.708m-4.918-20.587c.42.084-.2,2.308-1.236,2.639-1.557.492-3.843.593-4.741,1.821-.684.935-2.358,6.407-2.528,10.155-.038.824.028,3.837,1,4.266,1.052.465,3.047-1.728,3.932-2.736,2.094-2.389,4.06-6.124,5.337-7.777a14.742,14.742,0,0,1,2.9-2.891,11.435,11.435,0,0,1,3.749-1.832,6.031,6.031,0,0,1,5.094.824c1.877,1.2,2.187,3.624,2.345,6.779a13.128,13.128,0,0,1-2,7.531c-2.345,3.1-6.494,4.128-8.317,4.28-2.511.208-4.371-.509-5.5-1.916-.719-.9-.861-2.285-2.093-2.351-.955-.05-2.05,1.386-3.139,2.177-1.381,1-4.122,2.525-5.231.26a9.688,9.688,0,0,1-.6-4.379c.388-4.732,2-12.04,2.553-15.866.817-5.668,1.583-10.2,1.934-11.291.275-.844,2.1,1,2.263,1.457.085.239-.878,4.545-1.123,5.734-.224,1.1-.424,2.982.321,3.536,1.23.916,3.742-.7,5.077-.423" transform="translate(-7.132 0)" fill="#121212"/>
    <path id="Trazado_1874" data-name="Trazado 1874" d="M233.388,41.014c-.135.489-.513,1.262-2.015,1.627s-3.115.733-9.533,2.312c-1.924.473-5.119,1.232-5.687.887-.775-.47-.381-2.132-.227-2.762.416-1.7,1.935-1.934,6.046-2.035,1.732-.043,3.7-.213,4.9-.3,2.591-.2,5.712-.862,6.444-.8.458.135.147.809.075,1.075" transform="translate(0 -5.096)" fill="#e52320"/>
    <path id="Trazado_1875" data-name="Trazado 1875" d="M284.253,44c-.469,1.841-1.315,4.364-.723,4.795s1.832-1.305,2.53-2.232a27.606,27.606,0,0,1,2.334-2.957c1.478-1.666,4.719-3.125,7.432-1.832,3.578,1.709,1.727,6.99,0,9.488a25.333,25.333,0,0,1-4.622,4.441,26.893,26.893,0,0,1-2.633,1.916c-.886.555-2.651,1.741-3.722,1.755a.865.865,0,0,1-.88-1.118c.234-.583,3.023-1.992,5.844-4.2a20.871,20.871,0,0,0,4.878-5.231c1.128-2.188.157-5.213-2.7-4.614-1.941.407-3.2,2.639-4.533,4.353a33.9,33.9,0,0,0-3.955,7.124,49.065,49.065,0,0,0-2.135,7.695c-.905,4.654-.69,9.871-1.163,10.949s-3.286-.72-3.3-3.008c-.012-2.1,1.067-6.535,1.276-8.344.134-1.162,1.578-10.763,2.84-17.542.7-3.77,1.4-6.6,1.649-6.785.71-.535,2.026.584,2.349,1.588.158.491-.321,2-.77,3.756" transform="translate(-17.654 -4.687)" fill="#121212"/>
    <path id="Trazado_1876" data-name="Trazado 1876" d="M362.2,44c-.47,1.841-1.315,4.364-.722,4.795s1.832-1.305,2.53-2.232a27.684,27.684,0,0,1,2.334-2.957c1.478-1.666,4.72-3.125,7.432-1.832,3.578,1.709,1.727,6.99,0,9.488a25.362,25.362,0,0,1-4.622,4.441,26.9,26.9,0,0,1-2.633,1.916c-.886.555-2.651,1.741-3.722,1.755a.865.865,0,0,1-.88-1.118c.234-.583,3.023-1.992,5.843-4.2a20.871,20.871,0,0,0,4.878-5.231c1.128-2.188.157-5.213-2.7-4.614-1.94.407-3.2,2.639-4.533,4.353a33.9,33.9,0,0,0-3.955,7.124,49.068,49.068,0,0,0-2.135,7.695c-.905,4.654-.69,9.871-1.163,10.949s-3.285-.72-3.3-3.008c-.012-2.1,1.067-6.535,1.276-8.344.134-1.162,1.578-10.763,2.84-17.542.7-3.77,1.4-6.6,1.649-6.785.71-.535,2.026.584,2.349,1.588.158.491-.321,2-.769,3.756" transform="translate(-40.132 -4.687)" fill="#121212"/>
    <path id="Trazado_1877" data-name="Trazado 1877" d="M314.232,36.962c.422,2.086-2.565,2.537-2.964,1.045-.458-1.708,2.179-2.859,2.964-1.045" transform="translate(-27.548 -3.968)" fill="#121212"/>
    <path id="Trazado_1878" data-name="Trazado 1878" d="M312.9,45.63c.12.916-1.173,4.026-1.686,7.444a10.765,10.765,0,0,0-.263,3.83c.226.79.771,1.264.965,2.058.338,1.386-.753,3.05-2.015,2.99-2.371-.115-1.987-4.286-1.657-6.79.36-2.748,1.028-7.176,1.4-10.271.192-1.625.7-1.307,1.566-1.089A2.048,2.048,0,0,1,312.9,45.63" transform="translate(-26.622 -6.164)" fill="#121212"/>
    <path id="Trazado_1879" data-name="Trazado 1879" d="M334.335,53.449a7.472,7.472,0,0,0,6.154-3.246c1.971-3.176,2.042-8.365,1.175-9.776-1.024-1.667-3.162-1.741-5.013-1.028A8.1,8.1,0,0,0,333.6,41.58a13.793,13.793,0,0,0-2.057,4.6,14.3,14.3,0,0,0-.346,3.555c0,.483.393,3.389,3.134,3.708m-4.918-20.587c.42.084-.2,2.308-1.236,2.639-1.557.492-3.842.593-4.741,1.821-.684.935-2.358,6.407-2.528,10.155-.038.824.028,3.837,1,4.266,1.051.465,3.047-1.728,3.931-2.736,2.094-2.389,4.06-6.124,5.337-7.777a14.742,14.742,0,0,1,2.9-2.891,11.431,11.431,0,0,1,3.749-1.832,6.03,6.03,0,0,1,5.094.824c1.877,1.2,2.187,3.624,2.345,6.779a13.128,13.128,0,0,1-2,7.531c-2.345,3.1-6.494,4.128-8.317,4.28-2.511.208-4.371-.509-5.5-1.916-.718-.9-.861-2.285-2.093-2.351-.955-.05-2.05,1.386-3.139,2.177-1.382,1-4.122,2.525-5.231.26a9.672,9.672,0,0,1-.6-4.379c.388-4.732,2-12.04,2.553-15.866.817-5.668,1.583-10.2,1.934-11.291.275-.844,2.1,1,2.263,1.457.085.239-.879,4.545-1.123,5.734-.223,1.1-.424,2.982.321,3.536,1.23.916,3.743-.7,5.077-.423" transform="translate(-29.608 0)" fill="#121212"/>
  </g>
</svg>
