<svg xmlns:xlink="http://www.w3.org/1999/xlink" xmlns="http://www.w3.org/2000/svg" height="98" viewBox="0 0 254 98" fill="none" style="all: unset !important;display: revert !important;" width="254" >
      <g clip-path="url(#clip0_93_252)">
      <path d="M226.6 0H22.53C5.48001 0 -5.37999 18.23 2.75001 33.22L31.48 86.22C35.41 93.48 43.01 98 51.26 98H226.6C241.74 98 254.01 85.73 254.01 70.59V27.41C254.01 12.27 241.74 0 226.6 0Z" fill="#65DB95"/>
      <path d="M214.9 37.2502L220.89 33.7202C223.81 32.0002 225.6 28.8502 225.58 25.4602C225.56 22.2602 222.96 19.6802 219.77 19.6802C216.56 19.6802 213.96 22.2802 213.96 25.4902V29.2302L213.92 34.1902V36.6902C213.92 37.1902 214.47 37.5102 214.9 37.2502Z" fill="#FDFAFF"/>
      <path d="M155.56 30.9299C151.65 30.9299 148.33 32.1799 145.8 34.2799C144.63 35.2499 142.85 34.7999 142.28 33.3899C141.94 32.5399 141.11 31.9799 140.19 31.9799H132.96C132.69 31.9799 132.47 32.1999 132.47 32.4699V63.4699C132.47 67.8199 136 71.3499 140.35 71.3499H143.57C143.84 71.3499 144.06 71.1299 144.06 70.8599V49.6399C144.06 44.2899 146.9 41.2999 151.35 41.2999C156.05 41.2999 158.4 44.3799 158.4 49.6399V63.4699C158.4 67.8199 161.93 71.3499 166.28 71.3499H169.41C169.68 71.3499 169.9 71.1299 169.9 70.8599V47.5299C169.9 37.2399 165.2 30.9199 155.56 30.9199V30.9299Z" fill="#FDFAFF"/>
      <path d="M205.63 60.5899C204.06 61.5599 202.18 62.0399 200.36 62.0399C196.72 62.0399 194.45 60.1799 194.45 55.7999V42.2699C194.45 41.9999 194.67 41.7799 194.94 41.7799H205.31C205.58 41.7799 205.8 41.5599 205.8 41.2899V32.4599C205.8 32.1899 205.58 31.9699 205.31 31.9699H194.94C194.67 31.9699 194.45 31.7499 194.45 31.4799V20.3499C194.45 19.9599 194.14 19.6499 193.75 19.6499H183.76C183.49 19.6499 183.27 19.8699 183.27 20.1399V31.4699C183.27 31.7499 183.05 31.9699 182.77 31.9699H175.91C175.63 31.9699 175.41 32.1899 175.41 32.4699V41.2899C175.41 41.5599 175.63 41.7799 175.9 41.7799H182.46C182.73 41.7799 182.95 41.9999 182.95 42.2699V58.1499C182.95 66.0399 189.36 72.4299 197.25 72.4099H197.47C202.39 72.3999 206.36 68.4099 206.36 63.4899V61.0099C206.36 60.6399 205.95 60.3999 205.64 60.5899H205.63Z" fill="#FDFAFF"/>
      <path d="M54.6 31.9999C53.31 30.7399 51.52 30.1299 49.72 30.1299C43.96 30.1299 40.24 36.2199 42.87 41.3499L49.05 53.3899L55.94 39.9499C57.26 37.3699 56.82 34.1499 54.61 31.9999H54.6Z" fill="#FDFAFF"/>
      <path d="M74.26 30.1301H62.34C62.02 30.1301 61.81 30.3301 62.57 30.6901C63.67 31.2201 64.59 32.0901 65.17 33.2201C65.99 34.8301 66 36.7301 65.2 38.3401L55.78 56.7001C54.6 59.0101 54.6 61.7501 55.78 64.0601L59.62 71.5501C60.21 72.7001 61.85 72.7001 62.44 71.5501L73.66 49.6801V49.7301L79.48 38.4001C80.64 36.1301 80.19 33.2801 78.11 31.4701C77.06 30.5501 75.67 30.1201 74.27 30.1201L74.26 30.1301Z" fill="#FDFAFF"/>
      <path d="M104.76 30.9302C92.3701 30.9302 84.5901 39.6802 84.5901 51.8302C84.5901 63.9802 92.2901 72.4102 104.92 72.4102C113.35 72.4102 119.89 68.8302 123.07 62.4702C123.2 62.2202 123.1 61.9102 122.85 61.7702C120.27 60.4302 116.67 58.5402 114.65 57.4702C114.32 57.5902 114.16 57.6502 113.83 57.7702C112.08 61.5502 109.2 63.3302 105.16 63.3302C100.17 63.3302 97.0601 60.2602 96.1101 55.4102C96.0501 55.1102 96.2901 54.8302 96.5901 54.8302H117.8C121.28 54.8302 124.11 52.0102 124.11 48.5202V48.2502C124.11 48.0702 124.02 45.9502 123.82 45.1302C121.81 36.9902 115.42 30.9402 104.75 30.9402L104.76 30.9302ZM112.67 47.1402H96.6101C96.3001 47.1402 96.0601 46.8502 96.1301 46.5502C97.0601 42.3002 100.5 39.9302 104.61 39.9302C108.95 39.9302 112.18 42.2302 113.16 46.5502C113.23 46.8502 112.99 47.1402 112.68 47.1402H112.67Z" fill="#FDFAFF"/>
      <path d="M224.67 37.2399L217.82 41.2499C215.4 42.6699 213.92 45.2599 213.92 48.0599V62.1199C213.92 67.2299 218.06 71.3699 223.17 71.3699H224.49C225.12 71.3699 225.62 70.8599 225.62 70.2399V37.7999C225.62 37.3099 225.09 37.0099 224.67 37.2599V37.2399Z" fill="#FDFAFF"/>
      </g>
      <defs>
      <clipPath id="clip0_93_252">
      <rect width="254.01" height="98" fill="white"/>
      </clipPath>
      </defs>
    </svg>